<svg width="1440" height="810" xmlns="http://www.w3.org/2000/svg">
  <!-- Background -->
  <rect width="100%" height="100%" fill="#111827" />
  
  <!-- Abstract pattern - dots and lines -->
  <g opacity="0.2">
    <circle cx="200" cy="200" r="50" fill="#06b6d4" opacity="0.2" />
    <circle cx="1240" cy="610" r="70" fill="#06b6d4" opacity="0.2" />
    <circle cx="720" cy="405" r="90" fill="#06b6d4" opacity="0.2" />
    <circle cx="400" cy="700" r="40" fill="#06b6d4" opacity="0.2" />
    <circle cx="1000" cy="150" r="60" fill="#06b6d4" opacity="0.2" />
    
    <line x1="200" y1="200" x2="720" y2="405" stroke="#06b6d4" stroke-width="1" opacity="0.3" />
    <line x1="720" y1="405" x2="1240" y2="610" stroke="#06b6d4" stroke-width="1" opacity="0.3" />
    <line x1="720" y1="405" x2="400" y2="700" stroke="#06b6d4" stroke-width="1" opacity="0.3" />
    <line x1="720" y1="405" x2="1000" y2="150" stroke="#06b6d4" stroke-width="1" opacity="0.3" />
  </g>
  
  <!-- Film strip elements -->
  <g opacity="0.15">
    <rect x="0" y="100" width="1440" height="5" fill="#ffffff" />
    <rect x="0" y="705" width="1440" height="5" fill="#ffffff" />
    
    <!-- Perforations -->
    <rect x="20" y="85" width="15" height="35" rx="3" fill="#000000" />
    <rect x="120" y="85" width="15" height="35" rx="3" fill="#000000" />
    <rect x="220" y="85" width="15" height="35" rx="3" fill="#000000" />
    <rect x="320" y="85" width="15" height="35" rx="3" fill="#000000" />
    <rect x="420" y="85" width="15" height="35" rx="3" fill="#000000" />
    <rect x="520" y="85" width="15" height="35" rx="3" fill="#000000" />
    <rect x="620" y="85" width="15" height="35" rx="3" fill="#000000" />
    <rect x="720" y="85" width="15" height="35" rx="3" fill="#000000" />
    <rect x="820" y="85" width="15" height="35" rx="3" fill="#000000" />
    <rect x="920" y="85" width="15" height="35" rx="3" fill="#000000" />
    <rect x="1020" y="85" width="15" height="35" rx="3" fill="#000000" />
    <rect x="1120" y="85" width="15" height="35" rx="3" fill="#000000" />
    <rect x="1220" y="85" width="15" height="35" rx="3" fill="#000000" />
    <rect x="1320" y="85" width="15" height="35" rx="3" fill="#000000" />
    <rect x="1420" y="85" width="15" height="35" rx="3" fill="#000000" />
    
    <rect x="20" y="690" width="15" height="35" rx="3" fill="#000000" />
    <rect x="120" y="690" width="15" height="35" rx="3" fill="#000000" />
    <rect x="220" y="690" width="15" height="35" rx="3" fill="#000000" />
    <rect x="320" y="690" width="15" height="35" rx="3" fill="#000000" />
    <rect x="420" y="690" width="15" height="35" rx="3" fill="#000000" />
    <rect x="520" y="690" width="15" height="35" rx="3" fill="#000000" />
    <rect x="620" y="690" width="15" height="35" rx="3" fill="#000000" />
    <rect x="720" y="690" width="15" height="35" rx="3" fill="#000000" />
    <rect x="820" y="690" width="15" height="35" rx="3" fill="#000000" />
    <rect x="920" y="690" width="15" height="35" rx="3" fill="#000000" />
    <rect x="1020" y="690" width="15" height="35" rx="3" fill="#000000" />
    <rect x="1120" y="690" width="15" height="35" rx="3" fill="#000000" />
    <rect x="1220" y="690" width="15" height="35" rx="3" fill="#000000" />
    <rect x="1320" y="690" width="15" height="35" rx="3" fill="#000000" />
    <rect x="1420" y="690" width="15" height="35" rx="3" fill="#000000" />
  </g>
  
  <!-- Central text -->
  <text x="720" y="420" font-family="Arial, sans-serif" font-size="36" fill="#FFFFFF" text-anchor="middle" dominant-baseline="middle">GENRE</text>
  <text x="720" y="470" font-family="Arial, sans-serif" font-size="18" fill="#06b6d4" text-anchor="middle" dominant-baseline="middle">DISCOVER MOVIES</text>
</svg> 